<svg width="178" height="48" viewBox="0 0 178 48" fill="none" xmlns="http://www.w3.org/2000/svg">
<path fill-rule="evenodd" clip-rule="evenodd" d="M36 14C36 9.58172 32.4183 6 28 6L8 6C3.58172 6 -1.56562e-07 9.58172 -3.49691e-07 14L-1.22392e-06 34C-1.41705e-06 38.4183 3.58172 42 8 42L28 42C32.4183 42 36 38.4183 36 34L36 14ZM31 14C31 12.3431 29.6569 11 28 11L8 11C6.34315 11 5 12.3431 5 14L5 21C5 22.6569 5 22.5 8 26L16.5201 35.3721C17.3136 36.245 18.6864 36.245 19.4799 35.3721L28 26C31 23 31 22.6569 31 21L31 14Z" fill="#6172F3"/>
<path d="M61.7434 38.6C53.1434 38.6 47.6634 32.68 47.6634 23.92C47.6634 15.44 53.0234 9.4 61.7434 9.4C69.0234 9.4 74.0234 13.64 75.2234 20.8H70.3034C69.4234 16.4 66.1834 13.72 61.7434 13.72C56.1034 13.72 52.5834 17.68 52.5834 23.92C52.5834 30.32 56.1034 34.24 61.7434 34.24C66.2634 34.24 69.4234 31.64 70.3034 27.2H75.2234C73.9434 34.48 69.0634 38.6 61.7434 38.6ZM86.8828 38.6C81.8428 38.6 78.9228 35.44 78.9228 30.84V16.8H83.6428V30.64C83.6428 33.04 85.3228 34.44 87.8428 34.44C91.0828 34.44 93.0028 32.32 93.0428 29.6V16.8H97.7628V38H93.9628L93.6028 34.92C92.3628 37.2 89.8428 38.6 86.8828 38.6ZM107.284 38H102.564V16.8H106.364L106.924 20.96C108.284 18.08 110.764 16.56 114.284 16.56H115.084V21.16H114.284C109.884 21.16 107.284 23.52 107.284 27.52V38ZM124.838 38.44C119.958 38.44 116.757 36.08 116.798 32.12C116.838 27.16 121.758 26.12 125.878 25.64C129.078 25.28 131.438 25.16 131.478 23.48C131.438 21.4 129.838 20.04 127.118 20.04C124.318 20.04 122.318 21.56 122.038 23.76H117.278C117.718 19.28 121.718 16.16 127.197 16.16C132.918 16.16 136.078 19.28 136.078 23.8V33.4C136.078 34 136.398 34.32 137.118 34.32H138.278V38H136.038C133.878 38 132.558 37.12 132.198 35.52C132.118 35.32 132.038 35.04 131.998 34.8C130.758 37.08 128.438 38.44 124.838 38.44ZM125.798 34.72C129.038 34.72 131.478 32.88 131.478 30.04V27.08C130.678 28.32 128.638 28.6 126.398 28.88C123.758 29.2 121.558 29.56 121.558 31.8C121.558 33.64 123.038 34.72 125.798 34.72ZM152.966 38H150.246C145.646 38 143.166 35.72 143.166 31.52V20.8H139.446V16.8H143.166V9.56H147.886V16.8H153.366V20.8H147.886V31.2C147.886 33 148.806 34 150.566 34H152.966V38ZM163.822 38.44C158.942 38.44 155.742 36.08 155.782 32.12C155.822 27.16 160.742 26.12 164.862 25.64C168.062 25.28 170.422 25.16 170.462 23.48C170.422 21.4 168.822 20.04 166.102 20.04C163.302 20.04 161.302 21.56 161.022 23.76H156.262C156.702 19.28 160.702 16.16 166.182 16.16C171.902 16.16 175.062 19.28 175.062 23.8V33.4C175.062 34 175.382 34.32 176.102 34.32H177.262V38H175.022C172.862 38 171.542 37.12 171.182 35.52C171.102 35.32 171.022 35.04 170.982 34.8C169.742 37.08 167.422 38.44 163.822 38.44ZM164.782 34.72C168.022 34.72 170.462 32.88 170.462 30.04V27.08C169.662 28.32 167.622 28.6 165.382 28.88C162.742 29.2 160.542 29.56 160.542 31.8C160.542 33.64 162.022 34.72 164.782 34.72Z" fill="#181D27"/>
</svg>
