<svg width="16" height="16" viewBox="0 0 16 16" fill="none" xmlns="http://www.w3.org/2000/svg">
<path fill-rule="evenodd" clip-rule="evenodd" d="M16 3.55556C16 1.59188 14.4081 -6.95831e-08 12.4444 -1.55418e-07L3.55556 -5.43964e-07C1.59188 -6.29799e-07 -6.95831e-08 1.59188 -1.55418e-07 3.55555L-5.43964e-07 12.4444C-6.29799e-07 14.4081 1.59188 16 3.55555 16L12.4444 16C14.4081 16 16 14.4081 16 12.4444L16 3.55556ZM13.7778 3.55556C13.7778 2.81918 13.1808 2.22222 12.4444 2.22222L3.55556 2.22222C2.81918 2.22222 2.22222 2.81918 2.22222 3.55555L2.22222 6.66667C2.22222 7.40305 2.22222 7.33333 3.55555 8.88889L7.34228 13.0543C7.69495 13.4422 8.30505 13.4422 8.65772 13.0543L12.4444 8.88889C13.7778 7.55556 13.7778 7.40305 13.7778 6.66667L13.7778 3.55556Z" fill="#6172F3"/>
</svg>
