<svg width="32" height="32" viewBox="0 0 32 32" fill="none" xmlns="http://www.w3.org/2000/svg">
<path fill-rule="evenodd" clip-rule="evenodd" d="M32 7.11111C32 3.18375 28.8162 -1.39166e-07 24.8889 -3.10837e-07L7.11111 -1.08793e-06C3.18375 -1.2596e-06 -1.39166e-07 3.18375 -3.10837e-07 7.11111L-1.08793e-06 24.8889C-1.2596e-06 28.8162 3.18375 32 7.11111 32L24.8889 32C28.8162 32 32 28.8162 32 24.8889L32 7.11111ZM27.5556 7.11111C27.5556 5.63835 26.3616 4.44444 24.8889 4.44444L7.11111 4.44444C5.63835 4.44444 4.44444 5.63835 4.44444 7.11111L4.44444 13.3333C4.44444 14.8061 4.44444 14.6667 7.11111 17.7778L14.6846 26.1086C15.3899 26.8844 16.6101 26.8844 17.3154 26.1086L24.8889 17.7778C27.5556 15.1111 27.5556 14.8061 27.5556 13.3333L27.5556 7.11111Z" fill="#6172F3"/>
</svg>
