<svg width="48" height="48" viewBox="0 0 48 48" fill="none" xmlns="http://www.w3.org/2000/svg">
<path fill-rule="evenodd" clip-rule="evenodd" d="M48 10.6667C48 4.77563 43.2244 -2.08749e-07 37.3333 -4.66255e-07L10.6667 -1.63189e-06C4.77563 -1.8894e-06 -1.63926e-06 4.77563 -1.89677e-06 10.6667L-3.0624e-06 37.3333C-3.31991e-06 43.2244 4.77563 48 10.6667 48L37.3333 48C43.2244 48 48 43.2244 48 37.3333L48 10.6667ZM41.3333 10.6667C41.3333 8.45753 39.5425 6.66667 37.3333 6.66667L10.6667 6.66667C8.45753 6.66667 6.66667 8.45753 6.66666 10.6667L6.66666 20C6.66666 22.2091 6.66666 22 10.6667 26.6667L22.0268 39.1628C23.0849 40.3267 24.9151 40.3267 25.9732 39.1628L37.3333 26.6667C41.3333 22.6667 41.3333 22.2091 41.3333 20L41.3333 10.6667Z" fill="#6172F3"/>
</svg>
