<svg width="128" height="128" viewBox="0 0 128 128" fill="none" xmlns="http://www.w3.org/2000/svg">
<path fill-rule="evenodd" clip-rule="evenodd" d="M128 28.4444C128 12.735 115.265 -5.56665e-07 99.5556 -1.24335e-06L28.4444 -4.35171e-06C12.735 -5.03839e-06 -5.56665e-07 12.735 -1.24335e-06 28.4444L-4.35171e-06 99.5556C-5.03839e-06 115.265 12.735 128 28.4444 128L99.5555 128C115.265 128 128 115.265 128 99.5556L128 28.4444ZM110.222 28.4444C110.222 22.5534 105.447 17.7778 99.5556 17.7778L28.4444 17.7778C22.5534 17.7778 17.7778 22.5534 17.7778 28.4444L17.7778 53.3333C17.7778 59.2244 17.7778 58.6667 28.4444 71.1111L58.7382 104.434C61.5596 107.538 66.4404 107.538 69.2618 104.434L99.5556 71.1111C110.222 60.4444 110.222 59.2244 110.222 53.3333L110.222 28.4444Z" fill="#6172F3"/>
</svg>
